<svg width="24" height="24" viewBox="0 0 24 24" fill="none" xmlns="http://www.w3.org/2000/svg">
<path d="M10.3682 20.1642L17.2264 11.9476H11.9254L12.8862 4.42686L6.75693 13.2729H11.3622L10.3682 20.1642ZM9.84343 14.5981H5.88757C5.52798 14.5981 5.26735 14.4413 5.10567 14.1277C4.94399 13.814 4.96784 13.5132 5.17723 13.2252L12.6371 2.41778C12.7722 2.22783 12.9401 2.10193 13.1407 2.04008C13.3412 1.97824 13.5532 1.98796 13.7768 2.06924C14.0003 2.15052 14.1615 2.28481 14.2605 2.47212C14.3594 2.65942 14.3957 2.86395 14.3692 3.08571L13.4375 10.6224H18.1899C18.5609 10.6224 18.8238 10.7916 18.9784 11.13C19.1339 11.4683 19.0919 11.782 18.8525 12.0709L10.5511 22.0142C10.4098 22.1821 10.2392 22.2894 10.0396 22.3363C9.83902 22.3822 9.64111 22.3614 9.44586 22.274C9.25061 22.1874 9.10129 22.0562 8.99793 21.8804C8.89544 21.7046 8.85789 21.5058 8.88528 21.284L9.84343 14.5981Z" fill="white"/>
</svg>
